<mxfile host="app.diagrams.net" modified="2024-06-23T13:49:25.404Z" agent="Mozilla/5.0 (Windows NT 10.0; Win64; x64) AppleWebKit/537.36 (KHTML, like Gecko) Chrome/126.0.0.0 Safari/537.36" version="24.6.2" etag="fasSqBIB1g0a4nb_IwDt" type="github">
  <diagram name="Page-1" id="-5EkIFsKvf7fNb_-qwEy">
    <mxGraphModel>
      <root>
        <mxCell id="0" />
        <mxCell id="1" parent="0" />
      </root>
    </mxGraphModel>
  </diagram>
</mxfile>
